# xmcd
#
# Track frame offsets:
#       150
#       21472
#       51640
#       86352
#       118277
#       137467
#       157782
#       179002
#       204692
#       229800
#       259740
#
# Disc length: 3844 seconds
#
# Revision: 1
# Processed by: cddbd v1.5.2PL0 Copyright (c) Steve Scherf et al.
# Submitted via: FreeDbEdit v0.1
#
DISCID=9c0f020b
DTITLE=Dave Brubeck and Oscar Peterson - Dave Brubeck and Oscar Peterson
DYEAR=1998
DGENRE=Jazz
TTITLE0=In Your Own Sweet Way
TTITLE1=A Minor Thing
TTITLE2=Love Walked In
TTITLE3=Here Lies Love
TTITLE4=Out of Nowhere
TTITLE5=On a Clear Day You Can See Forever
TTITLE6=Someday My Prince Will Come
TTITLE7=Waltz for Debbie
TTITLE8=Seven Comes Eleven
TTITLE9=You Look Good to Me
TTITLE10=The Lamp Is Low
EXTD=YEAR: 1998
EXTT0=
EXTT1=
EXTT2=
EXTT3=
EXTT4=
EXTT5=
EXTT6=
EXTT7=
EXTT8=
EXTT9=
EXTT10=
PLAYORDER=
